<svg xmlns="http://www.w3.org/2000/svg" viewBox="0 0 9.49 9.84"><defs><style>.cls-1{fill:#b4b4b3;}</style></defs><title>Asset 4</title><g id="Layer_2" data-name="Layer 2"><g id="Capa_1" data-name="Capa 1"><polygon class="cls-1" points="8.3 3.04 7.34 3.04 7.34 4.23 6.16 4.23 6.16 5.18 7.34 5.18 7.34 6.37 8.3 6.37 8.3 5.18 9.49 5.18 9.49 4.23 8.3 4.23 8.3 3.04"/><path class="cls-1" d="M5.05,5.67c-.27-.2-.8-.67-.8-1s.09-.49.58-.87a2.05,2.05,0,0,0,.87-1.6,1.83,1.83,0,0,0-1-1.76h1L6.36,0H3.31A2.57,2.57,0,0,0,.66,2.23,2.2,2.2,0,0,0,3,4.45h.28A1.24,1.24,0,0,0,3.11,5a1.17,1.17,0,0,0,.41.84H3c-1.7,0-3,1.08-3,2.19S1.43,9.84,3.12,9.84c1.93,0,3-1.09,3-2.19A2.11,2.11,0,0,0,5.05,5.67ZM3.42,4.14A2.05,2.05,0,0,1,1.76,2.23C1.62,1.2,2.15.41,2.93.43A2,2,0,0,1,4.6,2.31C4.73,3.35,4.21,4.16,3.42,4.14Zm-.3,5.22a1.82,1.82,0,0,1-2-1.63c0-.88,1-1.6,2.22-1.59a2.63,2.63,0,0,1,.76.12c.63.44,1.09.69,1.22,1.2a1.55,1.55,0,0,1,0,.31C5.33,8.66,4.76,9.36,3.12,9.36Z"/></g></g></svg>