<svg xmlns="http://www.w3.org/2000/svg" viewBox="0 0 10.79 10.79"><defs><style>.cls-1{fill:#b4b4b3;}</style></defs><title>Asset 2</title><g id="Layer_2" data-name="Layer 2"><g id="Capa_1" data-name="Capa 1"><path class="cls-1" d="M5.4,0A5.4,5.4,0,0,0,3.23,10.34,5.3,5.3,0,0,1,3.32,9.1c.11-.44.7-2.94.7-2.94a2.12,2.12,0,0,1-.17-.85c0-.8.46-1.4,1-1.4a.72.72,0,0,1,.72.81,11.66,11.66,0,0,1-.47,1.91.83.83,0,0,0,.85,1C7,7.67,7.7,6.36,7.7,4.8A2,2,0,0,0,5.46,2.74,2.56,2.56,0,0,0,2.8,5.32a1.6,1.6,0,0,0,.35,1.06c.1.12.12.16.08.3s-.08.34-.11.43a.18.18,0,0,1-.27.14,2.09,2.09,0,0,1-1.1-2.06A3.57,3.57,0,0,1,5.6,1.81,3.24,3.24,0,0,1,9,4.91C9,7,7.84,8.6,6.11,8.6a1.55,1.55,0,0,1-1.32-.67s-.31,1.24-.38,1.48a4.43,4.43,0,0,1-.54,1.16A5.4,5.4,0,1,0,5.4,0Z"/></g></g></svg>