<svg xmlns="http://www.w3.org/2000/svg" viewBox="0 0 6.5 10.55"><defs><style>.cls-1{fill:#b4b4b3;}</style></defs><title>Asset 6</title><g id="Layer_2" data-name="Layer 2"><g id="Capa_1" data-name="Capa 1"><path class="cls-1" d="M4.91,8.83a1.49,1.49,0,0,1-.8-.21.8.8,0,0,1-.37-.42A4.55,4.55,0,0,1,3.65,7V4.32h2.5V2.67H3.65V0H2.15a4.11,4.11,0,0,1-.37,1.34,2.9,2.9,0,0,1-.71.91A3.23,3.23,0,0,1,0,2.83V4.32H1.17V8a3.22,3.22,0,0,0,.15,1.11,1.84,1.84,0,0,0,.54.71,2.82,2.82,0,0,0,1,.53,4.17,4.17,0,0,0,1.28.18,4.91,4.91,0,0,0,1.18-.13A6.7,6.7,0,0,0,6.5,10V8.31A2.86,2.86,0,0,1,4.91,8.83Z"/></g></g></svg>