<svg xmlns="http://www.w3.org/2000/svg" viewBox="0 0 10.29 8.36"><defs><style>.cls-1{fill:#b4b4b3;}</style></defs><title>twitter</title><g id="Layer_2" data-name="Layer 2"><g id="Capa_1" data-name="Capa 1"><path class="cls-1" d="M10,.15A4.2,4.2,0,0,1,8.67.67,2.12,2.12,0,0,0,5,2.11a1.86,1.86,0,0,0,.06.48A6,6,0,0,1,.72.39,2,2,0,0,0,.43,1.45a2.11,2.11,0,0,0,.94,1.76,2.09,2.09,0,0,1-1-.27V3A2.12,2.12,0,0,0,2.11,5a2.1,2.1,0,0,1-.56.07,2.6,2.6,0,0,1-.4,0,2.13,2.13,0,0,0,2,1.46,4.25,4.25,0,0,1-2.63.9,4.1,4.1,0,0,1-.5,0,6,6,0,0,0,3.24.94,6,6,0,0,0,6-6V2.08a4.19,4.19,0,0,0,1-1.09,4.09,4.09,0,0,1-1.21.33A2.09,2.09,0,0,0,10,.15Z"/></g></g></svg>